# xmcd CD database file
#
# Track frame offsets:
#	150
#	25432
#	43765
#	61553
#	81494
#	107244
#	126668
#	146315
#	167723
#	186498
#	210816
#	232409
#
# Disc length: 3404 seconds
#
# Revision: 22
# Processed by: cddbd v1.5.1PL0 Copyright (c) Steve Scherf et al.
# Submitted via: CDex 1.51
#
DISCID=b00d4a0c
DTITLE=平井堅 - SENTIMENTALovers
DYEAR=2004
DGENRE=J-Pop
TTITLE0=思いがかさなるその前に・・・
TTITLE1=jealousy
TTITLE2=言わない関係
TTITLE3=君が僕に憑依した!!
TTITLE4=瞳を閉じて
TTITLE5=青春デイズ
TTITLE6=style
TTITLE7=signal
TTITLE8=鍵穴
TTITLE9=nostalgia
TTITLE10=キミはともだち
TTITLE11=センチメンタル
EXTD=YEAR: 2004
EXTT0=
EXTT1=
EXTT2=
EXTT3=
EXTT4=
EXTT5=
EXTT6=
EXTT7=
EXTT8=
EXTT9=
EXTT10=
EXTT11=
PLAYORDER=
